<svg xmlns="http://www.w3.org/2000/svg" viewBox="0 0 32 32" width="32" height="32">
  <defs>
    <radialGradient id="g3-glow" cx="50%" cy="50%" r="50%">
      <stop offset="0%" stop-color="#fff8d8" stop-opacity="1"/>
      <stop offset="55%" stop-color="#ffd36d" stop-opacity="0.55"/>
      <stop offset="100%" stop-color="#ffd36d" stop-opacity="0"/>
    </radialGradient>
    <radialGradient id="g3-core" cx="38%" cy="35%" r="65%">
      <stop offset="0%" stop-color="#ffffff"/>
      <stop offset="35%" stop-color="#fff1a8"/>
      <stop offset="75%" stop-color="#ffae2e"/>
      <stop offset="100%" stop-color="#7a4a04"/>
    </radialGradient>
  </defs>
  <circle cx="16" cy="16" r="15.5" fill="url(#g3-glow)"/>
  <g stroke="#fff4b0" stroke-width="1.1" stroke-linecap="round" opacity="0.95">
    <line x1="16" y1="0.8" x2="16" y2="4.4"/>
    <line x1="16" y1="27.6" x2="16" y2="31.2"/>
    <line x1="0.8" y1="16" x2="4.4" y2="16"/>
    <line x1="27.6" y1="16" x2="31.2" y2="16"/>
    <line x1="5.2" y1="5.2" x2="7.8" y2="7.8"/>
    <line x1="24.2" y1="24.2" x2="26.8" y2="26.8"/>
    <line x1="26.8" y1="5.2" x2="24.2" y2="7.8"/>
    <line x1="5.2" y1="26.8" x2="7.8" y2="24.2"/>
  </g>
  <circle cx="16" cy="16" r="10.5" fill="url(#g3-core)" stroke="#4a3504" stroke-width="1.3"/>
  <polygon points="16,7.5 18,14 24.5,16 18,18 16,24.5 14,18 7.5,16 14,14"
           fill="#fff8d8" opacity="0.75"/>
  <ellipse cx="12.5" cy="12" rx="3.2" ry="2.2" fill="#ffffff" opacity="0.95"/>
  <circle cx="19.5" cy="20" r="1.2" fill="#ffffff" opacity="0.8"/>
</svg>
