<svg xmlns="http://www.w3.org/2000/svg" viewBox="0 0 64 64" width="64" height="64">
  <defs>
    <radialGradient id="glow" cx="50%" cy="50%" r="50%">
      <stop offset="0%" stop-color="#e6fbff" stop-opacity="0.9"/>
      <stop offset="55%" stop-color="#7cf6ff" stop-opacity="0.45"/>
      <stop offset="100%" stop-color="#7cf6ff" stop-opacity="0"/>
    </radialGradient>
    <linearGradient id="body" x1="0" y1="0" x2="0" y2="1">
      <stop offset="0%" stop-color="#e8faff"/>
      <stop offset="55%" stop-color="#8feaff"/>
      <stop offset="100%" stop-color="#4bb8cf"/>
    </linearGradient>
  </defs>
  <circle cx="32" cy="32" r="30" fill="url(#glow)"/>
  <circle cx="32" cy="32" r="24" fill="none" stroke="#7cf6ff" stroke-width="1.6" stroke-dasharray="2 3" opacity="0.55"/>
  <polygon points="32,6 37,20 52,22 41,31 45,46 32,38 19,46 23,31 12,22 27,20"
           fill="url(#body)" stroke="#15324a" stroke-width="2" stroke-linejoin="round"/>
  <circle cx="28" cy="32" r="2.6" fill="#0a0b1e"/>
  <circle cx="36" cy="32" r="2.6" fill="#0a0b1e"/>
  <circle cx="27.2" cy="31.1" r="0.9" fill="#ffffff"/>
  <circle cx="35.2" cy="31.1" r="0.9" fill="#ffffff"/>
  <path d="M27 38 Q32 42 37 38" fill="none" stroke="#0a0b1e" stroke-width="1.6" stroke-linecap="round"/>
  <ellipse cx="22" cy="38" rx="2.4" ry="1.6" fill="#ff9cc4" opacity="0.75"/>
  <ellipse cx="42" cy="38" rx="2.4" ry="1.6" fill="#ff9cc4" opacity="0.75"/>
</svg>
